# xmcd
#
# Track frame offsets: 
#        150
#        15086
#        28976
#        44377
#        60638
#        74603
#        88243
#        103684
#        123182
#        141821
#        155712
#        175847
#        192014
#        209379
#        225526
#
# Disc length: 3188 seconds
#
# Revision: 0
# Processed by: cddbd v1.5.2PL0 Copyright (c) Steve Scherf et al.
# Submitted via: ExactAudioCopy v1.0b3
#
DISCID=cd0c720f
DTITLE=Elliphant - A good idea
DYEAR=2013
DGENRE=Pop
TTITLE0=Music Is Life
TTITLE1=Live Till I Die
TTITLE2=Could It Be
TTITLE3=Where Is My Mama At
TTITLE4=Shoot Me Down
TTITLE5=Toilet Line Romance
TTITLE6=Down On Life
TTITLE7=Run Far
TTITLE8=More Fire
TTITLE9=Boom Your Head
TTITLE10=Paint The World
TTITLE11=Want It
TTITLE12=Pac Man
TTITLE13=Pom Pom
TTITLE14=Bitch Out
EXTD=
EXTT0=
EXTT1=
EXTT2=
EXTT3=
EXTT4=
EXTT5=
EXTT6=
EXTT7=
EXTT8=
EXTT9=
EXTT10=
EXTT11=
EXTT12=
EXTT13=
EXTT14=
PLAYORDER=
